<svg xmlns="http://www.w3.org/2000/svg" version="1.1" xmlns:xlink="http://www.w3.org/1999/xlink" xmlns:svgjs="http://svgjs.dev/svgjs" width="1000" height="181" viewBox="0 0 1000 181"><g transform="matrix(1,0,0,1,-0.6060605940434698,0.0851821001636921)"><svg viewBox="0 0 396 72" data-background-color="#ffffff" preserveAspectRatio="xMidYMid meet" height="181" width="1000" xmlns="http://www.w3.org/2000/svg" xmlns:xlink="http://www.w3.org/1999/xlink"><g id="tight-bounds" transform="matrix(1,0,0,1,0.24000000475871275,-0.033884592330309715)"><svg viewBox="0 0 395.52 72.06776888012813" height="72.06776888012813" width="395.52"><g><svg viewBox="0 0 395.52 72.06776888012813" height="72.06776888012813" width="395.52"><g><svg viewBox="0 0 395.52 72.06776888012813" height="72.06776888012813" width="395.52"><g id="textblocktransform"><svg viewBox="0 0 395.52 72.06776888012813" height="72.06776888012813" width="395.52" id="textblock"><g><svg viewBox="0 0 395.52 72.06776888012813" height="72.06776888012813" width="395.52"><g transform="matrix(1,0,0,1,0,0)"><svg width="395.52" viewBox="0.12000000476837158 -35.45000076293945 198.16000366210938 36.11000061035156" height="72.06776888012813" data-palette-color="#000000"><path d="M12.99-0.78L12.99-0.2Q12.99 0 12.79 0L12.79 0 0.32 0Q0.12 0 0.12-0.2L0.12-0.2 0.12-0.78Q0.12-0.98 0.44-0.98L0.44-0.98Q3.78-1.12 4.96-4.54L4.96-4.54 14.92-33.37Q14.94-33.42 14.94-33.5L14.94-33.5 14.67-34.3Q14.67-34.42 14.77-34.42L14.77-34.42 19.65-34.42Q19.7-34.4 19.79-34.38 19.87-34.35 19.92-34.23L19.92-34.23 30.25-5.25Q30.59-4.59 30.8-4.05 31.01-3.52 31.27-3.08L31.27-3.08Q31.86-2.08 33.2-1.54L33.2-1.54Q34.33-0.98 35.25-0.98L35.25-0.98Q35.45-0.98 35.45-0.76L35.45-0.76 35.45-0.2Q35.45 0 35.25 0L35.25 0 20.31 0Q20.12 0 20.12-0.2L20.12-0.2 20.12-0.78Q20.12-0.98 21.02-1.03 21.92-1.07 22.51-1.12L22.51-1.12Q25.9-1.49 25.9-3.42L25.9-3.42Q25.9-3.56 25.85-3.76L25.85-3.76 22.17-14.16Q22.14-14.21 22.07-14.38L22.07-14.38Q21.78-15.21 21.04-15.21L21.04-15.21 12.38-15.21Q11.65-15.21 11.23-14.4L11.23-14.4Q11.16-14.23 11.16-14.21L11.16-14.21 7.5-3.49 7.5-3.27Q7.5-2.64 8.15-2.12L8.15-2.12Q9.64-0.98 12.16-0.98L12.16-0.98 12.79-0.98Q12.99-0.98 12.99-0.78L12.99-0.78ZM13.01-17.92L20.21-17.92Q20.65-17.92 20.65-18.29L20.65-18.29Q20.65-18.48 20.56-18.73L20.56-18.73 16.92-28.74Q16.67-29.39 16.55-29.39L16.55-29.39Q16.43-29.39 16.16-28.71L16.16-28.71 12.74-18.73Q12.65-18.48 12.65-18.2 12.65-17.92 13.01-17.92L13.01-17.92ZM61.37 0L36.74 0Q36.55 0 36.55-0.2L36.55-0.2 36.55-0.78Q36.55-0.98 36.74-0.98L36.74-0.98 37.33-0.98Q39.43-0.98 40.99-1.86L40.99-1.86Q41.62-2.22 42.04-2.99 42.45-3.76 42.45-4.71L42.45-4.71 42.45-30.54Q42.45-32.06 40.5-32.86L40.5-32.86Q39.13-33.45 37.6-33.45L37.6-33.45 37.06-33.45Q36.86-33.45 36.86-33.64L36.86-33.64 36.86-34.23Q36.86-34.42 37.06-34.42L37.06-34.42 53.59-34.42Q53.78-34.42 53.78-34.23L53.78-34.23 53.78-33.64Q53.78-33.45 53.59-33.45L53.59-33.45 52.54-33.45Q50.02-33.45 48.09-32.74L48.09-32.74Q47.53-32.54 47.37-32.09 47.21-31.64 47.21-30.54L47.21-30.54 47.21-3.47Q47.26-3.05 47.65-2.69 48.04-2.32 48.53-2.32L48.53-2.32 58.18-2.32Q60.35-2.32 62.45-4.88L62.45-4.88Q63.01-5.57 63.84-6.7 64.67-7.84 64.87-7.98L64.87-7.98Q65.65-8.57 65.65-7.96L65.65-7.96Q65.65-7.81 65.57-7.67L65.57-7.67 61.89-0.44Q61.67 0 61.37 0L61.37 0ZM91.82 0L78.66 0Q77.83 0 77.83-0.49L77.83-0.49 77.83-0.73Q77.83-1.12 78.55-1.21 79.27-1.29 79.49-1.32L79.49-1.32Q81.34-1.51 82.1-2.23 82.86-2.95 82.86-4.39L82.86-4.39 82.86-12.48Q82.86-12.65 82.78-12.84L82.78-12.84 72.8-28.76Q70.45-32.5 68.16-33.06L68.16-33.06Q68.04-33.08 67.72-33.15 67.4-33.23 66.3-33.4L66.3-33.4Q65.91-33.47 65.91-33.95 65.91-34.42 66.28-34.42L66.28-34.42 80.24-34.42Q80.66-34.42 80.66-33.94 80.66-33.45 80.24-33.45L80.24-33.45Q78.61-33.28 78.07-33.11L78.07-33.11Q76.85-32.67 76.85-31.54L76.85-31.54Q76.85-30.96 77.14-30.49L77.14-30.49 85.4-17.31Q85.66-16.92 85.72-16.81 85.79-16.7 85.99-16.7 86.2-16.7 86.64-17.41L86.64-17.41 93.23-28.61Q93.53-29.2 93.9-29.87 94.28-30.54 94.28-31.25L94.28-31.25Q94.28-33.03 91.84-33.35L91.84-33.35Q90.96-33.47 90.89-33.62 90.82-33.76 90.82-33.98L90.82-33.98Q90.82-34.42 91.23-34.42L91.23-34.42 102.63-34.42Q102.97-34.42 102.97-34.08 102.97-33.74 102.86-33.62 102.75-33.5 102.57-33.44 102.39-33.37 102.17-33.34 101.95-33.3 101.22-33.13L101.22-33.13Q99.51-32.71 97.5-30.42L97.5-30.42Q97.29-30.15 97.26-30.1L97.26-30.1 87.62-13.5 87.62-4.39Q87.62-3.08 88.36-2.32 89.11-1.56 90.88-1.33 92.65-1.1 92.65-0.76L92.65-0.76 92.65-0.49Q92.65 0 91.82 0L91.82 0ZM122.33-33.96L123.7-34.13Q123.94-34.13 123.94-33.59L123.94-33.59 124.58-28.39Q124.68-27.91 124.68-27.77 124.68-27.64 124.3-27.64 123.92-27.64 123.82-27.73 123.72-27.83 123.63-28.06 123.53-28.3 123.39-28.59 123.26-28.88 123.11-29.17L123.11-29.17Q122.6-30.3 121.5-31.4L121.5-31.4Q118.82-33.98 115.45-33.98L115.45-33.98Q113.42-33.98 111.61-32.67 109.81-31.35 109.81-29.55 109.81-27.76 110.48-26.44 111.15-25.12 112.25-24 113.35-22.88 114.76-21.85 116.18-20.83 117.64-19.78L117.64-19.78Q121.53-17.07 123.16-15.14L123.16-15.14Q125.72-12.16 125.94-8.45L125.94-8.45Q125.94-4.3 122.76-1.82 119.57 0.66 115.35 0.66L115.35 0.66Q112.64 0.66 111.04 0.11 109.44-0.44 108.83-0.68 108.22-0.93 107.94-0.93 107.66-0.93 107.59-0.9L107.59-0.9 106.39-0.66Q106.07-0.66 106-1.17L106-1.17Q105.29-7.23 105.29-7.6 105.29-7.98 105.35-8.12 105.41-8.25 105.68-8.25L105.68-8.25Q106.36-8.25 106.93-6.3L106.93-6.3Q109.49-0.81 115.45-0.81L115.45-0.81Q118.18-0.81 120.12-2.47 122.06-4.13 122.06-6.79L122.06-6.79Q122.06-11.04 116.98-14.7L116.98-14.7Q115.54-15.72 112.83-17.55 110.12-19.38 108.51-21.22L108.51-21.22Q106-24.05 106-27.53 106-31.01 108.77-33.23 111.54-35.45 115.13-35.45L115.13-35.45Q116.98-35.45 119.22-34.81 121.45-34.18 122.33-33.96L122.33-33.96ZM147.38-33.96L148.74-34.13Q148.99-34.13 148.99-33.59L148.99-33.59 149.62-28.39Q149.72-27.91 149.72-27.77 149.72-27.64 149.34-27.64 148.96-27.64 148.87-27.73 148.77-27.83 148.67-28.06 148.57-28.3 148.44-28.59 148.31-28.88 148.16-29.17L148.16-29.17Q147.65-30.3 146.55-31.4L146.55-31.4Q143.86-33.98 140.49-33.98L140.49-33.98Q138.47-33.98 136.66-32.67 134.85-31.35 134.85-29.55 134.85-27.76 135.52-26.44 136.2-25.12 137.29-24 138.39-22.88 139.81-21.85 141.23-20.83 142.69-19.78L142.69-19.78Q146.57-17.07 148.21-15.14L148.21-15.14Q150.77-12.16 150.99-8.45L150.99-8.45Q150.99-4.3 147.8-1.82 144.62 0.66 140.4 0.66L140.4 0.66Q137.69 0.66 136.09 0.11 134.49-0.44 133.88-0.68 133.27-0.93 132.99-0.93 132.7-0.93 132.63-0.9L132.63-0.9 131.44-0.66Q131.12-0.66 131.04-1.17L131.04-1.17Q130.34-7.23 130.34-7.6 130.34-7.98 130.4-8.12 130.46-8.25 130.73-8.25L130.73-8.25Q131.41-8.25 131.97-6.3L131.97-6.3Q134.54-0.81 140.49-0.81L140.49-0.81Q143.23-0.81 145.17-2.47 147.11-4.13 147.11-6.79L147.11-6.79Q147.11-11.04 142.03-14.7L142.03-14.7Q140.59-15.72 137.88-17.55 135.17-19.38 133.56-21.22L133.56-21.22Q131.04-24.05 131.04-27.53 131.04-31.01 133.82-33.23 136.59-35.45 140.18-35.45L140.18-35.45Q142.03-35.45 144.26-34.81 146.5-34.18 147.38-33.96L147.38-33.96ZM166.17-0.78L166.17-0.2Q166.17 0 165.98 0L165.98 0 153.5 0Q153.31 0 153.31-0.2L153.31-0.2 153.31-0.78Q153.31-0.98 153.63-0.98L153.63-0.98Q156.97-1.12 158.14-4.54L158.14-4.54 168.1-33.37Q168.13-33.42 168.13-33.5L168.13-33.5 167.86-34.3Q167.86-34.42 167.96-34.42L167.96-34.42 172.84-34.42Q172.89-34.4 172.97-34.38 173.06-34.35 173.11-34.23L173.11-34.23 183.43-5.25Q183.78-4.59 183.98-4.05 184.19-3.52 184.46-3.08L184.46-3.08Q185.05-2.08 186.39-1.54L186.39-1.54Q187.51-0.98 188.44-0.98L188.44-0.98Q188.63-0.98 188.63-0.76L188.63-0.76 188.63-0.2Q188.63 0 188.44 0L188.44 0 173.5 0Q173.3 0 173.3-0.2L173.3-0.2 173.3-0.78Q173.3-0.98 174.21-1.03 175.11-1.07 175.7-1.12L175.7-1.12Q179.09-1.49 179.09-3.42L179.09-3.42Q179.09-3.56 179.04-3.76L179.04-3.76 175.35-14.16Q175.33-14.21 175.26-14.38L175.26-14.38Q174.96-15.21 174.23-15.21L174.23-15.21 165.56-15.21Q164.83-15.21 164.42-14.4L164.42-14.4Q164.34-14.23 164.34-14.21L164.34-14.21 160.68-3.49 160.68-3.27Q160.68-2.64 161.34-2.12L161.34-2.12Q162.83-0.98 165.34-0.98L165.34-0.98 165.98-0.98Q166.17-0.98 166.17-0.78L166.17-0.78ZM166.2-17.92L173.4-17.92Q173.84-17.92 173.84-18.29L173.84-18.29Q173.84-18.48 173.74-18.73L173.74-18.73 170.1-28.74Q169.86-29.39 169.74-29.39L169.74-29.39Q169.62-29.39 169.35-28.71L169.35-28.71 165.93-18.73Q165.83-18.48 165.83-18.2 165.83-17.92 166.2-17.92L166.2-17.92ZM191.93-2.45Q191.93-3.76 192.86-4.72 193.78-5.69 195.1-5.69L195.1-5.69Q196.4-5.69 197.34-4.75 198.28-3.81 198.28-2.47 198.28-1.12 197.35-0.23 196.42 0.66 195.1 0.66L195.1 0.66Q193.81 0.66 192.87-0.24 191.93-1.15 191.93-2.45Z" opacity="1" transform="matrix(1,0,0,1,0,0)" fill="#ffffff" class="wordmark-text-0" data-fill-palette-color="primary" id="text-0"></path></svg></g></svg></g></svg></g></svg></g><g></g></svg></g><defs></defs></svg><rect width="395.52" height="72.06776888012813" fill="none" stroke="none" visibility="hidden"></rect></g></svg></g></svg>